<svg width="24" height="24" viewBox="0 0 24 24" fill="none" xmlns="http://www.w3.org/2000/svg">
  <path d="M12 4
           C8.7 4 6.5 6.2 6.5 9.5
           C6.5 12 7.8 13.8 9.2 14.8
           L9.2 17
           L6 17
           L6 19
           L10.5 19
           L10.5 14
           C9.2 13.2 8.2 11.8 8.2 9.5
           C8.2 7.4 9.9 5.7 12 5.7
           C14.1 5.7 15.8 7.4 15.8 9.5
           C15.8 11.8 14.8 13.2 13.5 14
           L13.5 19
           L18 19
           L18 17
           L14.8 17
           L14.8 14.8
           C16.2 13.8 17.5 12 17.5 9.5
           C17.5 6.2 15.3 4 12 4 Z"
        fill="currentColor"/>
</svg>